<svg width="55" height="34" viewBox="0 0 55 34" fill="none" xmlns="http://www.w3.org/2000/svg">
<path d="M49.8661 4.53333H33.9996V0H49.8661V4.53333ZM53.7783 27.2C52.7765 30.1399 49.1793 34 42.2162 34C35.2485 34 29.6046 30.0809 29.6046 21.1367C29.6046 12.274 34.8746 7.718 41.9941 7.718C48.9799 7.718 53.2457 11.7572 54.1773 17.7503C54.3541 18.8972 54.4243 20.4431 54.3926 22.6009H36.1983C36.4929 29.8792 44.093 30.1081 46.5976 27.2H53.7783ZM36.3569 18.1333H47.6108C47.3728 14.6268 45.0359 13.1036 41.9963 13.1036C38.6734 13.1036 36.8352 14.8444 36.3569 18.1333ZM14.6561 33.9728H0V0.0475998H15.76C28.1721 0.2312 28.4078 12.3873 21.9252 15.7012C29.7701 18.5572 30.033 33.9728 14.6561 33.9728ZM6.79993 13.6H14.9236C20.6083 13.6 21.5104 6.8 14.2164 6.8H6.79993V13.6ZM14.4861 20.4H6.79993V27.2363H14.3728C21.2974 27.2363 20.8735 20.4 14.4861 20.4Z" fill="black"/>
</svg>
