<svg width="40" height="40" viewBox="0 0 40 40" fill="none" xmlns="http://www.w3.org/2000/svg">
<path d="M13.6545 39.7673C13.7993 39.5859 14.0236 39.4406 14.1466 39.2232C14.3043 38.9419 14.3072 38.6112 14.3072 38.2939C14.3043 37.3192 14.3014 36.3444 14.3 35.3697C14.3 35.0057 14.4375 34.4284 14.1162 34.251C13.8702 34.115 12.7891 34.4124 12.4837 34.4497C10.3621 34.7097 8.39819 34.3617 6.63836 33.1883C5.63543 32.5203 4.97838 31.6362 4.53698 30.5829C3.81336 28.8561 2.56874 27.5174 0.859566 26.5427C0.74234 26.476 0.626562 26.3973 0.538281 26.3027C0.150423 25.8867 0.238704 25.5853 0.813254 25.4373C1.69462 25.2093 2.52822 25.456 3.31407 25.772C4.55 26.2707 5.42847 27.1574 6.12748 28.1934C7.04648 29.5535 8.30122 30.5375 10.0321 30.7895C11.4301 30.9922 12.8426 30.8135 14.1422 30.2308C14.3072 30.1562 14.4288 29.9002 14.4693 29.7095C14.7081 28.5948 15.2016 27.6041 16.0989 26.7574C12.2391 26.1253 8.22018 25.3333 5.67016 22.3145C4.23306 20.6131 3.54563 18.465 3.24315 16.3276C2.79451 13.1621 3.26197 9.89528 5.57754 7.40583C5.86988 7.09115 6.01605 6.82181 5.8583 6.33645C5.5949 5.52442 5.38216 4.64838 5.43571 3.81368C5.50373 2.73629 5.84962 1.67225 6.08551 0.605534C6.12604 0.418859 6.21432 0.241518 6.28668 0.0455089C7.92494 -0.139833 9.44743 0.30552 10.9019 0.958883C11.915 1.41357 12.8658 1.98293 13.8615 2.47228C14.0598 2.56962 14.3405 2.59495 14.5677 2.56429C15.9122 2.38028 17.2466 2.09093 18.5968 1.98959C20.1888 1.86959 21.801 1.79759 23.39 1.90026C25.0167 2.00426 26.6246 2.35094 28.2426 2.57362C28.4365 2.60029 28.6811 2.57362 28.8447 2.48162C30.6769 1.45757 32.5279 0.469528 34.6611 0.0788437C35.2038 -0.0211607 35.7914 -0.0224941 36.337 0.0548426C36.5193 0.0801771 36.6886 0.478861 36.7726 0.732206C37.1822 1.96026 37.4181 3.22032 37.3008 4.50437C37.2444 5.12707 36.981 5.7671 36.9665 6.38446C36.9506 7.03648 37.1793 7.15782 37.6019 7.70985C38.2734 8.58855 38.7698 9.57393 39.1084 10.6006C39.7987 12.6914 39.848 14.9475 39.4384 17.0903C39.0621 19.0583 38.3038 21.0064 36.9188 22.5438C35.6987 23.8972 34.0475 24.8559 32.2833 25.496C31.3874 25.8213 30.4583 26.0653 29.5176 26.2493C29.1703 26.3173 26.8547 26.872 26.7549 26.744C26.9806 27.0307 27.2788 27.3694 27.5306 27.7361C28.0328 28.4681 28.3714 29.2775 28.3931 30.1375C28.4611 32.815 28.4785 35.4937 28.506 38.1712C28.5089 38.5152 28.5147 38.8686 28.6493 39.1899C28.7694 39.4766 29.0111 39.7033 29.302 39.8446C26.846 40.178 24.0804 39.8713 21.5897 39.8713C18.9992 39.8713 16.1626 40.1673 13.6039 39.8459C13.6198 39.8193 13.6386 39.7926 13.6589 39.7673H13.6545Z" fill="#2C2C2C"/>
</svg>
