<?xml version="1.0" encoding="UTF-8"?><svg id="Layer_1" xmlns="http://www.w3.org/2000/svg" viewBox="0 0 510.67 503.85"><defs><style>.cls-1{fill:#f8ecde;stroke-width:0px;}</style></defs><path class="cls-1" d="m302.52,502.29c-31.73-4.38-59.03-17.77-81.94-40.08-4.16-4.05-7.94-8.53-11.59-13.05-46.37-57.39-91.07-116.07-135.83-174.72-6-7.86-11.86-15.5-13.96-25.52-4.88-23.25,11.27-48.21,34.56-52.94,5.62-1.14,5.64-1.16,2.18-5.66-11.87-15.45-23.69-30.94-35.66-46.3-21.04-26.99-5.46-66.64,28.66-72.33,4.5-.75,5.12-1.7,3.53-5.98-6.21-16.78-.53-37.22,13.04-48.55,15.14-12.64,35.23-14.66,51.72-5.32,5.9,3.34,10.83,7.64,14.66,13.26,1,1.47,1.72,3.27,3.85,4.2,3.36-8.12,8.26-15.08,15.45-20.26,5.47-3.94,11.37-6.83,17.99-8.32,3.36-.69,7.88-.96,13.58-.48s13.23,2.99,19.22,6.4c7.96,4.53,12.58,12.16,17.99,19.09,31.74,40.65,63.51,81.28,95.32,121.87,18.47,23.57,37.04,47.07,55.57,70.59,4.04,5.13,4.06,5.1,7.09-.95,12.6-25.1,25.76-49.94,37.6-75.4,6.3-13.54,18.92-13.98,28.09-8.52,13.67,8.14,24.68,22.51,26.37,36.11s-.27,36.59-.49,41.65c-.47,10.6-.96,21.2-1.47,31.8-1.03,21.2-2.18,42.4-3.51,63.58-.2,3.18-.4,6.36-.61,9.53-2.64,40.03-15.04,76.53-38.72,108.99-30.92,42.39-71.4,69.52-123.99,77.24-19.22,2.41-25,1.9-38.67.08Zm18.03-18.83c11.11-.35,21.03-1.06,30.83-3.36,29.75-6.99,55.28-21.41,77.05-42.82,26.74-26.31,43.79-57.84,51.79-94.39,3.51-16.02,4.04-32.34,5.04-48.61,2.33-37.86,3.95-75.76,5.49-113.66.47-11.44-4.34-20.17-12.91-27.31-2.89-2.41-4.25-2.46-6.09,1.27-14.23,28.77-29,57.28-42.91,86.2-5.79,12.03-13.79,15.46-23.84,2.45-33.59-43.48-67.84-86.46-101.75-129.69-21.27-27.12-42.6-54.2-63.49-81.6-9.59-12.57-24.28-15.75-36.68-6.81-11.77,8.49-13.47,23.57-3.93,36.14,30.6,40.32,61.25,80.61,91.87,120.91,5.04,6.63,10.07,13.26,15.07,19.92,4.87,6.48,4.71,12.49-.36,16.24-5.03,3.72-10.5,2.35-15.39-3.87-1.23-1.57-2.41-3.19-3.61-4.78-19.23-25.33-38.48-50.65-57.68-76-24.62-32.51-49.23-65.04-73.78-97.6-6.38-8.46-18.31-12.22-28.13-8.62-10.92,4.01-17.61,13.84-17.16,24.94.32,7.85,4.81,13.48,9.35,19.36,46.18,59.64,92.23,119.38,138.3,179.1,2.54,3.29,5.2,6.52,7.43,10.02,2.86,4.5,1.84,9.86-2.06,12.99-3.99,3.2-9.23,2.94-13.13-.77-1.32-1.25-2.48-2.7-3.59-4.14-16.79-21.74-33.46-43.58-50.36-65.24-26.32-33.72-51.81-68.07-78.77-101.31-9.82-12.1-25.15-15.05-36.88-5.8-11.4,9-12.47,25.05-2.78,36.9,21.06,25.77,40.01,53.17,61.37,78.73,14.4,17.23,27.33,35.68,40.95,53.56,13.41,17.62,26.9,35.19,40.28,52.83,5.02,6.63,3.08,14.46-4,16.61-5.49,1.66-9.14-1.1-12.41-5.14-27.93-34.6-54.46-70.28-81.55-105.53-1.72-2.23-3.2-4.66-5.7-6.21-8.53-5.26-20.82-4.2-28.97,2.56-7.94,6.57-11.02,18.18-7.52,27.61,1.66,4.49,4.76,7.92,7.58,11.63,44.93,59.13,90.03,118.13,136.62,175.97,25.08,31.14,57.7,46.68,96.44,47.35Z"/><path class="cls-1" d="m0,329c1.49-.04,1.11-1.39,1.51-2.18,2.5-4.82,6.46-6.89,11.42-5.92,4.4.86,7.48,4.38,7.83,9.68.39,5.8.37,11.63,1.32,17.39,4.21,25.57,15.93,46.68,37.11,62.05,9.64,7,20.55,10.75,32.49,11.34,1.66.08,3.32.26,4.96.48,5.46.71,8.92,4.4,9.01,9.55.1,5.26-3.45,9.61-9.1,10.03-6.99.52-13.95-.56-20.72-2.33-24-6.31-41.99-20.84-55.6-41.18-12.04-18-18.09-37.96-19.14-59.51-.04-.92.29-2.07-1.11-2.38v-7Z"/><path class="cls-1" d="m94.4,391.17c-19.04-.93-31.67-11.4-40.52-27.35-4.69-8.45-6.58-17.68-6.91-27.26-.23-6.76,3.62-11.43,9.57-11.64,5.6-.2,9.93,4.03,10.29,10.54.5,9,2.67,17.33,8.29,24.59,4.69,6.06,10.57,9.96,18.29,10.86.99.11,1.98.23,2.96.41,6.39,1.15,9.73,5.11,9.21,10.87-.5,5.43-5.14,9.17-11.18,8.98Z"/><path class="cls-1" d="m357.1,12.15c30.85,2.08,53.83,17.49,71.04,42.33,13.78,19.89,19.63,42.31,20.25,66.29.13,4.88-1.29,8.9-5.86,11.22-6.34,3.21-13.59-1.41-13.98-9.08-.56-10.83-1.42-21.62-4.85-31.96-8.04-24.2-22.1-43.42-45.99-54.19-6.43-2.9-13.26-4.23-20.3-4.61-2.31-.13-4.69-.22-6.91-.83-4.55-1.25-7.53-5.78-7.08-10.22.47-4.61,4.04-8.35,8.7-8.92,1.64-.2,3.32-.03,4.98-.03Z"/><path class="cls-1" d="m402.01,115.47c.48,7.83-2.15,12.24-8.58,12.95-5.18.57-9.41-2.48-10.65-7.57-1.14-4.69-.65-9.59-2.08-14.27-3.48-11.38-12.45-23.53-27.11-24.37-6.47-.37-10.61-5.02-10.21-10.54.42-5.68,5.48-9.72,12.04-9.33,13.15.77,23.96,6.38,32.39,16.42,8.59,10.22,13.55,21.96,14.19,36.71Z"/></svg>