<svg width="40" height="40" viewBox="0 0 40 40" fill="none" xmlns="http://www.w3.org/2000/svg">
<path d="M21.7973 16.4764C22.8051 14.6262 24.3854 13.5036 26.349 12.8386C27.5721 12.4253 28.8277 12.2988 30.0964 12.3822C31.9883 12.5048 33.8372 12.8008 35.4566 13.9195C37.0538 15.0213 37.9287 16.5898 38.4411 18.3983C38.9692 20.2615 39.1204 22.1691 39.1217 24.1027C39.1256 28.9896 39.17 33.8752 39.1973 38.7621C39.1973 38.8403 39.1973 38.9185 39.1973 39.0333H31.069V38.5482C31.069 34.9782 31.0756 31.4096 31.0651 27.8396C31.0612 26.6022 31.0717 25.3609 30.9739 24.1288C30.8826 22.9892 30.7248 21.8353 30.0181 20.8678C29.4262 20.0568 28.593 19.68 27.6099 19.5326C26.7402 19.4023 25.894 19.4401 25.0608 19.6852C23.4545 20.1572 22.6578 21.3737 22.3045 22.8992C22.1128 23.7285 22.0228 24.5969 22.0176 25.4483C21.9889 29.9414 22.002 34.4358 21.9994 38.929C21.9994 38.9759 21.9902 39.0228 21.9824 39.1024H13.9023V13.0068H21.6916C21.6916 14.1725 21.6916 15.342 21.6916 16.5116C21.7086 16.5298 21.7268 16.5468 21.7438 16.565C21.7607 16.5351 21.7764 16.5051 21.7933 16.4751L21.7973 16.4764Z" fill="#2C2C2C"/>
<path d="M0.700684 13.0042H8.77031V39.1154H0.700684V13.0042Z" fill="#2C2C2C"/>
<path d="M0.00309854 4.62555C-0.0581832 2.45853 1.86893 -0.270466 5.14685 0.0216002C7.39341 0.221092 9.2449 2.09475 9.37529 4.3387C9.5487 7.31673 7.15611 9.30382 4.80133 9.41987C2.1962 9.54764 -0.0959953 7.11985 0.00309854 4.62555Z" fill="#2C2C2C"/>
</svg>
