<svg width="40" height="45" viewBox="0 0 40 45" fill="none" xmlns="http://www.w3.org/2000/svg">
<path d="M13.6546 43.4965C13.7993 43.2997 14.0237 43.142 14.1467 42.9061C14.3044 42.6007 14.3073 42.2418 14.3073 41.8973C14.3044 40.8394 14.3015 39.7815 14.3001 38.7236C14.3001 38.3285 14.4376 37.7018 14.1163 37.5093C13.8703 37.3617 12.7892 37.6844 12.4838 37.725C10.3622 38.0072 8.39828 37.6295 6.63845 36.3559C5.63552 35.6308 4.97848 34.6713 4.53707 33.528C3.81345 31.6538 2.56884 30.2008 0.859657 29.1429C0.742432 29.0705 0.626653 28.9851 0.538372 28.8824C0.150514 28.4309 0.238795 28.1038 0.813346 27.9431C1.69471 27.6957 2.52831 27.9634 3.31416 28.3064C4.55009 28.8477 5.42856 29.8101 6.12758 30.9346C7.04657 32.4107 8.30132 33.4788 10.0322 33.7523C11.4302 33.9723 12.8427 33.7784 14.1423 33.1459C14.3073 33.0649 14.4289 32.787 14.4694 32.5801C14.7082 31.3702 15.2017 30.2949 16.099 29.3759C12.2392 28.6899 8.22027 27.8303 5.67025 24.5537C4.23315 22.7071 3.54572 20.3756 3.24325 18.0557C2.7946 14.6199 3.26206 11.0742 5.57763 8.37224C5.86997 8.0307 6.01614 7.73836 5.85839 7.21156C5.595 6.3302 5.38225 5.37937 5.4358 4.4734C5.50382 3.30404 5.84971 2.14915 6.08561 0.991368C6.12613 0.788756 6.21441 0.596274 6.28677 0.383531C7.92504 0.182366 9.44752 0.665741 10.902 1.37488C11.9151 1.86839 12.8659 2.48636 13.8616 3.01749C14.0598 3.12314 14.3406 3.15064 14.5678 3.11735C15.9123 2.91763 17.2466 2.60358 18.5969 2.49359C20.1889 2.36334 21.8011 2.28519 23.3901 2.39663C25.0168 2.50951 26.6247 2.88579 28.2427 3.12748C28.4366 3.15642 28.6812 3.12748 28.8448 3.02762C30.6769 1.91615 32.528 0.84375 34.6612 0.419712C35.2039 0.31117 35.7915 0.309722 36.3371 0.393662C36.5194 0.421159 36.6887 0.853881 36.7727 1.12885C37.1822 2.46175 37.4181 3.82939 37.3009 5.22307C37.2445 5.89893 36.9811 6.5936 36.9666 7.26366C36.9507 7.97136 37.1794 8.10306 37.6019 8.70221C38.2735 9.65594 38.7699 10.7254 39.1085 11.8398C39.7988 14.1091 39.848 16.5578 39.4385 18.8835C39.0622 21.0196 38.3039 23.134 36.9188 24.8026C35.6988 26.2716 34.0475 27.3121 32.2834 28.0068C31.3875 28.3599 30.4584 28.6248 29.5177 28.8245C29.1704 28.8983 26.8548 29.5004 26.755 29.3614C26.9807 29.6726 27.2788 30.0402 27.5307 30.4382C28.0329 31.2327 28.3715 32.1112 28.3932 33.0446C28.4612 35.9507 28.4786 38.8581 28.5061 41.7642C28.509 42.1376 28.5148 42.5211 28.6494 42.8699C28.7695 43.181 29.0112 43.4271 29.3021 43.5805C26.8461 43.9423 24.0805 43.6094 21.5898 43.6094C18.9992 43.6094 16.1627 43.9307 13.604 43.5819C13.6199 43.553 13.6387 43.524 13.659 43.4965H13.6546Z" fill="white"/>
</svg>
