<svg width="40" height="40" viewBox="0 0 40 40" fill="none" xmlns="http://www.w3.org/2000/svg">
<g clip-path="url(#clip0_7_41)">
<path d="M22.193 16.8832C23.1988 15.0369 24.7757 13.9167 26.7352 13.2531C27.9556 12.8407 29.2086 12.7145 30.4746 12.7977C32.3625 12.92 34.2074 13.2154 35.8234 14.3317C37.4173 15.4312 38.2903 16.9964 38.8017 18.801C39.3286 20.6603 39.4795 22.5638 39.4808 24.4934C39.4848 29.3699 39.529 34.2452 39.5563 39.1218C39.5563 39.1998 39.5563 39.2779 39.5563 39.3924H31.4452V38.9084C31.4452 35.3459 31.4517 31.7848 31.4413 28.2224C31.4374 26.9876 31.4478 25.749 31.3502 24.5194C31.2591 23.3822 31.1017 22.2308 30.3965 21.2653C29.8058 20.4561 28.9744 20.08 27.9934 19.933C27.1255 19.8029 26.2811 19.8406 25.4497 20.0852C23.8467 20.5562 23.0517 21.7702 22.6991 23.2925C22.5079 24.12 22.4181 24.9865 22.4129 25.8361C22.3843 30.3198 22.3973 34.8047 22.3947 39.2883C22.3947 39.3351 22.3856 39.382 22.3778 39.4614H14.3148V13.421H22.0876C22.0876 14.5841 22.0876 15.7512 22.0876 16.9183C22.1045 16.9366 22.1227 16.9535 22.1397 16.9717C22.1566 16.9418 22.1722 16.9118 22.1891 16.8819L22.193 16.8832Z" fill="white"/>
<path d="M1.14108 13.4183H9.19365V39.4743H1.14108V13.4183Z" fill="white"/>
<path d="M0.444987 5.05742C0.383834 2.89498 2.30687 0.171756 5.57786 0.463205C7.81967 0.662275 9.66725 2.53197 9.79736 4.77118C9.97041 7.74291 7.58287 9.7258 5.23307 9.8416C2.63345 9.96911 0.346102 7.54644 0.444987 5.05742Z" fill="white"/>
</g>
<defs>
<clipPath id="clip0_7_41">
<rect width="40" height="39.9154" fill="white"/>
</clipPath>
</defs>
</svg>
