<svg width="217" height="217" viewBox="0 0 217 217" fill="none" xmlns="http://www.w3.org/2000/svg">
<circle cx="108.385" cy="108.385" r="76.64" transform="rotate(45 108.385 108.385)" fill="#2C2C2C"/>
<path d="M141.981 81.8612C143.934 79.9086 143.934 76.7428 141.981 74.7901C140.028 72.8375 136.862 72.8375 134.91 74.7901L141.981 81.8612ZM72.6319 139.139C72.6319 141.901 74.8705 144.139 77.6319 144.139L122.632 144.139C125.393 144.139 127.632 141.901 127.632 139.139C127.632 136.378 125.393 134.139 122.632 134.139H82.6319V94.1391C82.6319 91.3777 80.3933 89.1391 77.6319 89.1391C74.8705 89.1391 72.6319 91.3777 72.6319 94.1391L72.6319 139.139ZM134.91 74.7901L74.0964 135.604L81.1674 142.675L141.981 81.8612L134.91 74.7901Z" fill="white"/>
</svg>
